<?xml version="1.0" encoding="utf-8"?>
<!-- Generator: Adobe Illustrator 26.5.0, SVG Export Plug-In . SVG Version: 6.00 Build 0)  -->
<svg version="1.1" id="Layer_1" xmlns="http://www.w3.org/2000/svg" xmlns:xlink="http://www.w3.org/1999/xlink" x="0px" y="0px"
	 viewBox="0 0 331 372.3" style="enable-background:new 0 0 331 372.3;" xml:space="preserve">
<style type="text/css">
	.st0{fill:#64748B;}
</style>
<path class="st0" d="M314.7,103.9h-75.2c-2.3-25.5-9.4-48.5-19.6-66.1C206.3,14.5,187.2,0,165.5,0c-21.7,0-40.9,14.4-54.4,37.8
	c-10.2,17.7-17.3,40.6-19.6,66.1H16.2c-8.9,0-16.8,7.4-16.2,16.3l15.2,210.6c1.6,22.8,15.8,41.5,42.6,41.5h215.4
	c24.1,0,40.7-15.1,42.6-41.5l15.1-210.7C331.6,111.2,323.6,103.9,314.7,103.9z M127.3,47.3c10.2-17.6,23.7-28.5,38.2-28.5
	c14.4,0,28,10.9,38,28.4c8.7,15,14.8,34.6,17,56.7H110.3C112.6,81.9,118.6,62.2,127.3,47.3z M221.9,286c-1.2,4.3-3.1,8.6-5.7,12.8
	c-0.6,0.9-1,1.6-1.3,2.1c-9.3,13.7-23.6,20.5-41,20.6c-16.3,0-35.3-6-55.3-18.2c-2.5-1.4-5.1-3-7.8-4.9c-3.5-2.4-4.4-7.1-2-10.6
	c2.4-3.5,7.1-4.4,10.6-2c2.2,1.5,4.5,3,7,4.5c17.6,10.7,33.8,16,47.3,16c12.2,0,22.1-4.6,28.4-13.9c0.4-0.7,0.8-1.1,0.9-1.4
	c1.8-2.9,3.1-6,4-9c1.8-6.2,1.5-12.6-1-18.4c-2.7-6.1-7.9-12-16-16.9c-5.4-3.3-12.1-6.2-20.2-8.4c-20.6-5.8-35.8-14-44-25
	c-9-12.1-9.7-26.7-0.1-44.4c6.4-11.7,19.5-19,36.1-20.3c14.3-1.1,31.5,2.3,49,11.2c3.8,1.9,5.3,6.5,3.3,10.3s-6.5,5.3-10.3,3.3
	c-14.9-7.6-29.1-10.5-40.9-9.6c-11.3,0.9-19.9,5.3-23.7,12.3c-6.4,11.7-6.3,20.9-1.1,27.9c6,8.1,18.5,14.4,35.9,19.3
	c9.4,2.7,17.4,6.1,24,10.1c10.9,6.6,18.2,14.9,22.1,23.9C224.1,266.6,224.6,276.4,221.9,286z"/>
</svg>

